<svg id="Icons" height="512" viewBox="0 0 60 60" width="512" xmlns="http://www.w3.org/2000/svg"><path d="m59 52v2a2.006 2.006 0 0 1 -2 2h-23a3 3 0 0 1 -3 3h-2a3 3 0 0 1 -3-3h-23a2.006 2.006 0 0 1 -2-2v-2a2.006 2.006 0 0 1 2-2h22a5 5 0 0 1 5 5 5 5 0 0 1 5-5h22a2.006 2.006 0 0 1 2 2z" fill="#f44335"/><path d="m57 50h-3a2.006 2.006 0 0 1 2 2v2a2.006 2.006 0 0 1 -2 2h3a2.006 2.006 0 0 0 2-2v-2a2.006 2.006 0 0 0 -2-2z" fill="#c81e1e"/><path d="m30 48.73v6.27a5 5 0 0 0 -5-5h-21v-3.22a1.992 1.992 0 0 1 1.77-1.98l17.54-2.03a6.007 6.007 0 0 1 6.69 5.96z" fill="#f5f5f5"/><path d="m23.31 42.77-.978.113a6.009 6.009 0 0 1 4.668 5.847v1.693a5 5 0 0 1 3 4.577v-6.27a6.007 6.007 0 0 0 -6.69-5.96z" fill="#cfd8dc"/><path d="m56 46.78v3.22h-21a5 5 0 0 0 -5 5v-6.27a6.007 6.007 0 0 1 6.69-5.96l17.54 2.03a1.992 1.992 0 0 1 1.77 1.98z" fill="#f5f5f5"/><path d="m54.23 44.8-17.54-2.03a6 6 0 0 0 -2.022.113l16.562 1.917a1.992 1.992 0 0 1 1.77 1.98v3.22h3v-3.22a1.992 1.992 0 0 0 -1.77-1.98z" fill="#cfd8dc"/><path d="m36 29a2.015 2.015 0 0 1 -2 2h-8a2.006 2.006 0 0 1 -2-2 2.015 2.015 0 0 1 2-2h8a2.006 2.006 0 0 1 2 2z" fill="#9e9e9e"/><path d="m34 27h-3a2.006 2.006 0 0 1 2 2 2.015 2.015 0 0 1 -2 2h3a2.015 2.015 0 0 0 2-2 2.006 2.006 0 0 0 -2-2z" fill="#707070"/><path d="m34 31v2a3 3 0 0 1 -3 3h-2a3 3 0 0 1 -3-3v-2z" fill="#7f8e94"/><path d="m31 31v2a2.99 2.99 0 0 1 -2.5 2.95 3.048 3.048 0 0 0 .5.05h2a3 3 0 0 0 3-3v-2z" fill="#545c60"/><path d="m42 13c0 11-8 9-8 14h-8c0-5-8-3-8-14a12 12 0 0 1 24 0z" fill="#ffdf00"/><path d="m30 1a11.968 11.968 0 0 0 -1.5.1 11.99 11.99 0 0 1 10.5 11.9c0 11-8 9-8 14h3c0-5 8-3 8-14a12 12 0 0 0 -12-12z" fill="#fec108"/><path d="m57 49v-2.217a3 3 0 0 0 -2.656-2.98l-17.544-2.025a7 7 0 0 0 -4.57 1.066 9.689 9.689 0 0 1 3.12-3.536c3.875-2.623 9.688-2.416 17.276.621a1 1 0 0 0 .744-1.858c-8.244-3.3-14.684-3.439-19.141-.42a11.922 11.922 0 0 0 -4.229 5.229 11.922 11.922 0 0 0 -4.231-5.229c-4.458-3.017-10.9-2.876-19.141.42a1 1 0 1 0 .744 1.858c7.587-3.037 13.4-3.246 17.276-.621a9.7 9.7 0 0 1 3.12 3.536 6.991 6.991 0 0 0 -4.568-1.066l-17.544 2.022a3 3 0 0 0 -2.656 2.983v2.217a3 3 0 0 0 -3 3v2a3 3 0 0 0 3 3h22.126a4.009 4.009 0 0 0 3.874 3h2a4.009 4.009 0 0 0 3.874-3h22.126a3 3 0 0 0 3-3v-2a3 3 0 0 0 -3-3zm-24.327-4a5.011 5.011 0 0 1 3.9-1.235l17.542 2.025a1 1 0 0 1 .885.993v2.217h-20a5.971 5.971 0 0 0 -4 1.537v-1.8a5 5 0 0 1 1.673-3.737zm-27.673 1.783a1 1 0 0 1 .885-.994l17.541-2.024a5 5 0 0 1 5.574 4.967v1.8a5.971 5.971 0 0 0 -4-1.532h-20zm53 7.217a1 1 0 0 1 -1 1h-23a1 1 0 0 0 -1 1 2 2 0 0 1 -2 2h-2a2 2 0 0 1 -2-2 1 1 0 0 0 -1-1h-23a1 1 0 0 1 -1-1v-2a1 1 0 0 1 1-1h22a4 4 0 0 1 4 4 1 1 0 0 0 2 0 4 4 0 0 1 4-4h22a1 1 0 0 1 1 1z"/><path d="m30 0a13.015 13.015 0 0 0 -13 13c0 7.1 3.232 9.289 5.592 10.887 1.289.873 2.04 1.432 2.3 2.331a2.987 2.987 0 0 0 .109 5.6v1.182a4 4 0 0 0 4 4h2a4 4 0 0 0 4-4v-1.184a2.987 2.987 0 0 0 .11-5.6c.258-.9 1.009-1.458 2.3-2.331 2.357-1.596 5.589-3.785 5.589-10.885a13.015 13.015 0 0 0 -13-13zm3 33a2 2 0 0 1 -2 2h-2a2 2 0 0 1 -2-2v-1h6zm1-3h-8a1 1 0 0 1 0-2h8a1 1 0 0 1 0 2zm2.287-7.769c-1.386.938-2.8 1.91-3.182 3.769h-2.105v-6h1a1 1 0 0 0 0-2h-4a1 1 0 0 0 0 2h1v6h-2.1c-.379-1.859-1.8-2.831-3.182-3.769-2.218-1.496-4.718-3.191-4.718-9.231a11 11 0 0 1 22 0c0 6.04-2.5 7.735-4.713 9.231z"/><path d="m10 13a1 1 0 0 0 1 1h3a1 1 0 0 0 0-2h-3a1 1 0 0 0 -1 1z"/><path d="m15.644 20.134-2.6 1.5a1 1 0 1 0 1 1.732l2.6-1.5a1 1 0 0 0 -1-1.732z"/><path d="m44.356 20.134a1 1 0 1 0 -1 1.732l2.6 1.5a1 1 0 0 0 1-1.732z"/><path d="m50 13a1 1 0 0 0 -1-1h-3a1 1 0 0 0 0 2h3a1 1 0 0 0 1-1z"/><path d="m45.955 2.634-2.6 1.5a1 1 0 1 0 1 1.732l2.6-1.5a1 1 0 0 0 -1-1.732z"/><path d="m16.644 4.134-2.6-1.5a1 1 0 0 0 -1 1.732l2.6 1.5a1 1 0 1 0 1-1.732z"/></svg>