<svg height="512" viewBox="0 0 512 512" width="512" xmlns="http://www.w3.org/2000/svg"><g id="Layer_2" data-name="Layer 2"><g id="_04.home" data-name="04.home"><circle id="background" cx="256" cy="256" fill="#ff2147" r="256"/><path d="m385.32 277c-5.77 4-12.05 5-19 4.66-.08 28.82.24 57.06-.18 85.78-.3 15.29-13.33 28.14-28.65 28.43s-30.71.13-46.06.07c-4.95 0-8.19-3.58-8.21-8.8-.05-13 0-25.93 0-38.9 0-8.54 0-17.09 0-25.64 0-8.82-5.61-14.45-14.5-14.56q-12.54-.13-25.1 0c-8.68.1-14.27 5.77-14.28 14.48-.05 21.14 0 42.29-.05 63.44 0 7.07-3 10-10.08 10q-20.82 0-41.65 0c-18.3 0-31.3-12.88-31.37-31.21-.1-27.69 0-55.39-.06-83.09-25.35 2.43-40.15-26.13-22-44.59q56.24-56.28 112.57-112.5a32.68 32.68 0 0 1 8.06-6.11c8.74-4.37 22.39-3 30.7 5.51 21.05 21.6 42.56 42.74 63.89 64.06 16.38 16.38 32.62 32.92 49.2 49.1 10.9 10.67 9.88 31.15-3.23 39.87z" fill="#fff"/></g></g></svg>